HIERARCHY
ROOT joint_0
{
	OFFSET 0.000000 0.000000 0.000000
	CHANNELS 6 Xposition Yposition Zposition Zrotation Yrotation Xrotation 
	JOINT joint_1
	{
		OFFSET 6.004005 -1.946999 100.587036
		CHANNELS 3 Zrotation Yrotation Xrotation
		JOINT joint_2
		{
			OFFSET -4.601006 -0.824997 91.925903
			CHANNELS 3 Zrotation Yrotation Xrotation
			JOINT joint_3
			{
				OFFSET -5.420998 -1.130005 91.774048
				CHANNELS 3 Zrotation Yrotation Xrotation
				JOINT joint_4
				{
					OFFSET 4.308998 -3.777992 123.473999
					CHANNELS 3 Zrotation Yrotation Xrotation
					JOINT joint_5
					{
						OFFSET 25.565002 -6.305008 79.437988
						CHANNELS 3 Zrotation Yrotation Xrotation
						End Site
						{
							OFFSET 0.000000 0.000000 0.000000
						}
					}
				}
				JOINT joint_6
				{
					OFFSET -1.750000 -28.655998 68.557983
					CHANNELS 3 Zrotation Yrotation Xrotation
					JOINT joint_7
					{
						OFFSET -17.692001 -116.544006 -17.244019
						CHANNELS 3 Zrotation Yrotation Xrotation
						JOINT joint_8
						{
							OFFSET 27.063004 -23.640991 -266.895020
							CHANNELS 3 Zrotation Yrotation Xrotation
							JOINT joint_9
							{
								OFFSET 40.722000 -15.761017 -232.488953
								CHANNELS 3 Zrotation Yrotation Xrotation
								End Site
								{
									OFFSET 0.000000 0.000000 0.000000
								}
							}
						}
					}
				}
				JOINT joint_10
				{
					OFFSET 6.593002 24.457001 69.892944
					CHANNELS 3 Zrotation Yrotation Xrotation
					JOINT joint_11
					{
						OFFSET 24.311996 114.920002 -19.872925
						CHANNELS 3 Zrotation Yrotation Xrotation
						JOINT joint_12
						{
							OFFSET 21.081001 15.319000 -268.037964
							CHANNELS 3 Zrotation Yrotation Xrotation
							JOINT joint_13
							{
								OFFSET 27.794006 -8.947001 -234.744080
								CHANNELS 3 Zrotation Yrotation Xrotation
								End Site
								{
									OFFSET 0.000000 0.000000 0.000000
								}
							}
						}
					}
				}
			}
		}
	}
	JOINT joint_14
	{
		OFFSET -6.627998 -80.520004 -98.790039
		CHANNELS 3 Zrotation Yrotation Xrotation
		JOINT joint_15
		{
			OFFSET -43.638000 -13.751999 -502.538971
			CHANNELS 3 Zrotation Yrotation Xrotation
			JOINT joint_16
			{
				OFFSET -39.532999 -9.912994 -398.071007
				CHANNELS 3 Zrotation Yrotation Xrotation
				JOINT joint_17
				{
					OFFSET 174.940004 -34.660995 -75.688002
					CHANNELS 3 Zrotation Yrotation Xrotation
					End Site
					{
						OFFSET 0.000000 0.000000 0.000000
					}
				}
			}
		}
	}
	JOINT joint_18
	{
		OFFSET 12.591003 79.842003 -98.765015
		CHANNELS 3 Zrotation Yrotation Xrotation
		JOINT joint_19
		{
			OFFSET -39.080002 -1.297001 -503.101013
			CHANNELS 3 Zrotation Yrotation Xrotation
			JOINT joint_20
			{
				OFFSET -51.570000 -0.514000 -396.815987
				CHANNELS 3 Zrotation Yrotation Xrotation
				JOINT joint_21
				{
					OFFSET 178.987999 -11.521999 -73.244003
					CHANNELS 3 Zrotation Yrotation Xrotation
					End Site
					{
						OFFSET 0.000000 0.000000 0.000000
					}
				}
			}
		}
	}
}
MOTION
Frames: 12
Frame Time: 0.016667
-2663.936523 936.944641 1102.139038 3.884660 4.194846 0.832837 0.725657 -2.950370 -3.129841 0.524180 0.526825 0.782220 0.384540 -0.729553 -0.513394 -0.461653 -8.852877 -1.086718 0.000000 0.000000 0.000000 0.570083 7.789040 0.800314 -0.036576 7.380686 4.021787 -0.933183 2.610263 -3.830389 0.000000 0.000000 0.000000 -0.160980 5.928475 7.137140 -0.031207 7.887327 -1.543928 0.655401 -2.449139 5.021613 0.000000 0.000000 0.000000 1.405814 -6.488075 -2.345552 0.217420 13.071217 1.223053 0.885096 -2.844758 -0.188371 0.000000 0.000000 0.000000 -0.044934 -15.204305 2.762191 -0.651508 29.770859 3.327623 0.556923 -1.466734 0.111782 0.000000 0.000000 0.000000 
-2647.763184 935.919189 1103.686035 3.927290 4.190493 0.745062 1.142232 -2.662688 -2.864601 0.724076 0.474810 0.708813 0.564297 -0.678556 -0.550878 -0.452895 -8.391461 -0.980328 0.000000 0.000000 0.000000 0.291112 7.454733 0.322521 -0.160373 6.919883 4.167788 -1.090740 2.516336 -4.657574 0.000000 0.000000 0.000000 -0.486013 5.886833 7.391281 -0.110844 7.783160 -0.759046 0.714867 -1.711636 5.765746 0.000000 0.000000 0.000000 1.495247 -7.033973 -2.086955 -0.030021 16.067045 1.251628 0.720582 -2.894237 -0.270495 0.000000 0.000000 0.000000 0.562387 -18.858754 2.267223 -0.772593 37.937364 4.396680 1.144656 0.478847 0.432801 0.000000 0.000000 0.000000 
-2629.711914 935.345459 1104.592041 3.986071 4.136392 0.652552 1.514989 -2.597053 -2.642632 0.858864 0.418059 0.641165 0.681753 -0.639345 -0.524025 -0.445007 -7.813075 -0.807696 0.000000 0.000000 0.000000 0.069955 7.184414 -0.093877 -0.327951 6.692306 3.346391 -1.058549 1.817003 -4.799740 0.000000 0.000000 0.000000 -0.274533 6.176497 7.486851 -0.156638 7.776121 0.469596 0.695670 -1.861687 5.606749 0.000000 0.000000 0.000000 1.597671 -6.899123 -1.856874 -0.189808 17.967874 1.302042 0.563875 -2.708168 -0.301034 0.000000 0.000000 0.000000 1.310251 -21.890486 1.583590 -0.901433 44.553894 5.497176 1.836192 2.055625 0.752201 0.000000 0.000000 0.000000 
-2610.125000 935.127136 1105.089966 4.129626 4.051533 0.554607 1.898800 -2.777896 -2.430473 0.926211 0.395188 0.566889 0.727221 -0.609451 -0.443477 -0.431934 -7.022679 -0.572795 0.000000 0.000000 0.000000 -0.127409 6.907114 -0.380558 -0.547207 6.618985 1.670884 -0.889791 0.601695 -4.472639 0.000000 0.000000 0.000000 0.360440 6.645648 7.464678 -0.187635 7.741937 2.108018 0.610945 -2.552045 4.746268 0.000000 0.000000 0.000000 1.668483 -6.277497 -1.646018 -0.294183 19.100777 1.402352 0.401930 -2.347142 -0.298231 0.000000 0.000000 0.000000 2.207123 -24.748663 0.677358 -1.061348 50.616325 6.685034 2.665204 3.364673 1.090459 0.000000 0.000000 0.000000 
-2589.874023 935.051270 1105.214966 4.256125 3.918939 0.361075 2.236543 -2.865348 -2.118269 0.995050 0.361028 0.455870 0.783101 -0.573770 -0.360847 -0.425787 -6.351063 -0.360820 0.000000 0.000000 0.000000 -0.222337 6.619412 -0.569392 -0.775341 6.528927 0.270733 -0.774791 -1.043250 -4.543793 0.000000 0.000000 0.000000 1.036481 7.065925 7.381571 -0.229547 7.679687 3.514108 0.550536 -3.320921 4.139014 0.000000 0.000000 0.000000 1.689355 -5.469501 -1.352085 -0.312593 19.988514 1.526145 0.318998 -1.845257 -0.235925 0.000000 0.000000 0.000000 3.042277 -27.273483 -0.117893 -1.220004 55.305090 7.583604 3.424645 4.348117 1.384972 0.000000 0.000000 0.000000 
-2569.582764 934.935730 1104.993042 4.380752 3.726568 0.055739 2.430765 -2.644144 -1.744520 1.102841 0.306912 0.347248 0.890757 -0.527429 -0.307124 -0.427675 -6.027133 -0.241755 0.000000 0.000000 0.000000 -0.137650 6.386391 -0.828864 -0.984607 6.300490 0.273591 -0.878685 -3.298305 -5.837452 0.000000 0.000000 0.000000 1.528265 7.331559 7.322766 -0.267510 7.680878 4.113236 0.594538 -4.169445 4.580708 0.000000 0.000000 0.000000 1.666278 -4.605835 -0.965960 -0.239597 20.861478 1.684715 0.366278 -1.214463 -0.097197 0.000000 0.000000 0.000000 3.603405 -29.455661 -0.567960 -1.374118 58.182807 7.929753 3.879584 4.651151 1.544335 0.000000 0.000000 0.000000 
-2548.928711 934.856628 1104.418945 4.616128 3.508742 -0.296246 2.487764 -2.295938 -1.411671 1.205246 0.278862 0.288383 0.988441 -0.477382 -0.266264 -0.429745 -5.922835 -0.195191 0.000000 0.000000 0.000000 0.088836 6.187029 -1.097136 -1.221577 5.995941 1.194104 -1.150682 -6.226848 -7.989739 0.000000 0.000000 0.000000 1.977788 7.533931 7.278712 -0.303005 7.756870 4.140068 0.689978 -5.292926 5.697321 0.000000 0.000000 0.000000 1.581941 -3.596174 -0.555535 -0.107175 21.524863 1.898847 0.506662 -0.459979 0.101299 0.000000 0.000000 0.000000 3.916410 -31.466697 -0.832481 -1.541168 59.756866 7.892287 4.045504 4.156070 1.565803 0.000000 0.000000 0.000000 
-2527.637451 935.025879 1103.425049 4.776320 3.346823 -0.626731 2.479144 -1.913154 -1.079614 1.353989 0.248450 0.237980 1.147297 -0.418655 -0.237827 -0.426570 -5.952227 -0.211280 0.000000 0.000000 0.000000 0.325877 5.813216 -1.300448 -1.450176 5.563112 1.894067 -1.412664 -8.826644 -9.824163 0.000000 0.000000 0.000000 2.238843 7.554688 7.182894 -0.358534 7.738247 3.947139 0.776700 -5.632544 6.859263 0.000000 0.000000 0.000000 1.481310 -2.751239 -0.192670 0.014989 22.414286 2.108905 0.675192 0.376219 0.325496 0.000000 0.000000 0.000000 4.010357 -33.124558 -1.002034 -1.633532 59.901336 7.590711 3.914937 3.256980 1.472402 0.000000 0.000000 0.000000 
-2505.609375 935.668091 1102.046021 4.712454 3.311316 -0.890682 2.469491 -1.542109 -0.730232 1.588148 0.200534 0.179474 1.418827 -0.344899 -0.214879 -0.411512 -6.100413 -0.306985 0.000000 0.000000 0.000000 0.474609 5.070256 -1.493970 -1.607111 4.898650 1.539424 -1.511452 -10.204822 -10.474653 0.000000 0.000000 0.000000 2.144720 7.219919 6.987567 -0.432551 7.472479 3.624335 0.854443 -4.000097 7.760102 0.000000 0.000000 0.000000 1.407052 -2.291008 0.066847 0.067963 23.795515 2.260765 0.815256 1.317665 0.559043 0.000000 0.000000 0.000000 3.890301 -34.264509 -1.108198 -1.562737 58.233945 7.104646 3.513164 2.177993 1.286582 0.000000 0.000000 0.000000 
-2482.938721 936.707703 1100.308960 4.494803 3.370282 -1.113296 2.470833 -1.148786 -0.386471 1.874574 0.149041 0.130208 1.750381 -0.259297 -0.196645 -0.386357 -6.400282 -0.489285 0.000000 0.000000 0.000000 0.582912 4.037702 -1.678296 -1.701936 4.029941 0.510586 -1.502801 -10.755359 -10.380556 0.000000 0.000000 0.000000 1.768965 6.593466 6.659457 -0.575991 7.004983 3.104112 0.896421 -0.753901 8.642040 0.000000 0.000000 0.000000 1.353896 -2.087927 0.248106 0.067587 25.479507 2.362338 0.940627 2.428657 0.821860 0.000000 0.000000 0.000000 3.498398 -34.883891 -1.054334 -1.386907 54.628598 6.361388 2.819965 1.106167 1.004616 0.000000 0.000000 0.000000 
-2459.340088 937.725586 1097.854004 4.285497 3.455101 -1.230350 2.507993 -0.803352 -0.156961 2.129804 0.100036 0.088455 2.038895 -0.183803 -0.192650 -0.371814 -6.678391 -0.638588 0.000000 0.000000 0.000000 0.730420 3.134275 -1.772536 -1.794998 3.266901 -0.268206 -1.527250 -11.381829 -10.450394 0.000000 0.000000 0.000000 1.376146 6.030193 6.294634 -0.751438 6.529637 2.842426 0.864027 2.063467 9.252636 0.000000 0.000000 0.000000 1.301539 -2.099114 0.306024 -0.012445 27.583322 2.448133 1.029686 3.697183 1.103784 0.000000 0.000000 0.000000 2.803581 -35.005968 -0.855141 -1.295539 50.029091 5.273564 1.804263 0.691399 0.645753 0.000000 0.000000 0.000000 
-2434.379395 938.275696 1094.446045 4.292508 3.574427 -1.064946 2.584254 -0.663481 -0.335337 2.281260 0.098322 0.156216 2.184049 -0.132923 -0.215195 -0.383354 -6.806789 -0.665076 0.000000 0.000000 0.000000 0.976609 2.687767 -1.775396 -1.934024 2.821702 0.093225 -1.723295 -12.742535 -11.456182 0.000000 0.000000 0.000000 1.101932 5.701631 6.041999 -0.808206 6.173526 3.058201 0.840144 3.084339 9.505872 0.000000 0.000000 0.000000 1.186640 -2.233106 0.128624 -0.213700 29.994175 2.480366 1.038391 5.351712 1.435008 0.000000 0.000000 0.000000 1.636023 -34.657706 -0.602568 -1.511407 44.580330 3.566415 0.217062 1.315327 0.142406 0.000000 0.000000 0.000000 
